<?xml version="1.0" encoding="UTF-8" standalone="no"?>
<!DOCTYPE svg PUBLIC "-//W3C//DTD SVG 1.1//EN"
 "http://www.w3.org/Graphics/SVG/1.1/DTD/svg11.dtd">
<!-- Generated by graphviz version 2.38.0 (20140413.2041)
 -->
<!-- Title: controllers_diagram Pages: 1 -->
<svg width="398pt" height="343pt"
 viewBox="0.00 0.00 398.00 343.50" xmlns="http://www.w3.org/2000/svg" xmlns:xlink="http://www.w3.org/1999/xlink">
<g id="graph0" class="graph" transform="scale(1 1) rotate(0) translate(100 227.5)">
<title>controllers_diagram</title>
<polygon fill="none" stroke="none" points="-100,116 -100,-227.5 298,-227.5 298,116 -100,116"/>
<!-- _diagram_info -->
<g id="node1" class="node"><title>_diagram_info</title>
<text text-anchor="start" x="88" y="16.4" font-family="Times,serif" font-size="13.00">Controllers diagram</text>
<text text-anchor="start" x="88" y="30.4" font-family="Times,serif" font-size="13.00">Date: Oct 11 2017 &#45; 21:08</text>
<text text-anchor="start" x="88" y="44.4" font-family="Times,serif" font-size="13.00">Migration version: 20171011221739</text>
<text text-anchor="start" x="88" y="58.4" font-family="Times,serif" font-size="13.00">Generated by RailRoady 1.5.3</text>
<text text-anchor="start" x="88" y="72.4" font-family="Times,serif" font-size="13.00">http://railroady.prestonlee.com</text>
</g>
<!-- CommentsController -->
<g id="node2" class="node"><title>CommentsController</title>
<path fill="none" stroke="black" d="M92,-33C92,-33 200,-33 200,-33 206,-33 212,-39 212,-45 212,-45 212,-129 212,-129 212,-135 206,-141 200,-141 200,-141 92,-141 92,-141 86,-141 80,-135 80,-129 80,-129 80,-45 80,-45 80,-39 86,-33 92,-33"/>
<text text-anchor="middle" x="146" y="-125.8" font-family="Times,serif" font-size="14.00">CommentsController</text>
<polyline fill="none" stroke="black" points="80,-118 212,-118 "/>
<text text-anchor="start" x="88" y="-102.8" font-family="Times,serif" font-size="14.00">create</text>
<text text-anchor="start" x="88" y="-87.8" font-family="Times,serif" font-size="14.00">destroy</text>
<polyline fill="none" stroke="black" points="80,-80 212,-80 "/>
<polyline fill="none" stroke="black" points="80,-56 212,-56 "/>
<text text-anchor="start" x="88" y="-40.8" font-family="Times,serif" font-size="14.00">_layout</text>
</g>
<!-- CompaniesController -->
<g id="node3" class="node"><title>CompaniesController</title>
<path fill="none" stroke="black" d="M-68,111.5C-68,111.5 42,111.5 42,111.5 48,111.5 54,105.5 54,99.5 54,99.5 54,-89.5 54,-89.5 54,-95.5 48,-101.5 42,-101.5 42,-101.5 -68,-101.5 -68,-101.5 -74,-101.5 -80,-95.5 -80,-89.5 -80,-89.5 -80,99.5 -80,99.5 -80,105.5 -74,111.5 -68,111.5"/>
<text text-anchor="middle" x="-13" y="-86.3" font-family="Times,serif" font-size="14.00">CompaniesController</text>
<polyline fill="none" stroke="black" points="-80,-78.5 54,-78.5 "/>
<text text-anchor="start" x="-72" y="-63.3" font-family="Times,serif" font-size="14.00">create</text>
<text text-anchor="start" x="-72" y="-48.3" font-family="Times,serif" font-size="14.00">destroy</text>
<text text-anchor="start" x="-72" y="-33.3" font-family="Times,serif" font-size="14.00">edit</text>
<text text-anchor="start" x="-72" y="-18.3" font-family="Times,serif" font-size="14.00">index</text>
<text text-anchor="start" x="-72" y="-3.3" font-family="Times,serif" font-size="14.00">new</text>
<text text-anchor="start" x="-72" y="11.7" font-family="Times,serif" font-size="14.00">show</text>
<text text-anchor="start" x="-72" y="26.7" font-family="Times,serif" font-size="14.00">update</text>
<polyline fill="none" stroke="black" points="-80,34.5 54,34.5 "/>
<polyline fill="none" stroke="black" points="-80,58.5 54,58.5 "/>
<text text-anchor="start" x="-72" y="73.7" font-family="Times,serif" font-size="14.00">_layout</text>
<text text-anchor="start" x="-72" y="88.7" font-family="Times,serif" font-size="14.00">company_params</text>
<text text-anchor="start" x="-72" y="103.7" font-family="Times,serif" font-size="14.00">set_company</text>
</g>
<!-- ApplicationController -->
<g id="node4" class="node"><title>ApplicationController</title>
<path fill="none" stroke="black" d="M-84,-129C-84,-129 28,-129 28,-129 34,-129 40,-135 40,-141 40,-141 40,-211 40,-211 40,-217 34,-223 28,-223 28,-223 -84,-223 -84,-223 -90,-223 -96,-217 -96,-211 -96,-211 -96,-141 -96,-141 -96,-135 -90,-129 -84,-129"/>
<text text-anchor="middle" x="-28" y="-207.8" font-family="Times,serif" font-size="14.00">ApplicationController</text>
<polyline fill="none" stroke="black" points="-96,-200 40,-200 "/>
<polyline fill="none" stroke="black" points="-96,-176 40,-176 "/>
<polyline fill="none" stroke="black" points="-96,-152 40,-152 "/>
<text text-anchor="start" x="-88" y="-136.8" font-family="Times,serif" font-size="14.00">_layout</text>
</g>
</g>
</svg>
