<?xml version="1.0" encoding="UTF-8" standalone="no"?>
<!DOCTYPE svg PUBLIC "-//W3C//DTD SVG 1.1//EN"
 "http://www.w3.org/Graphics/SVG/1.1/DTD/svg11.dtd">
<!-- Generated by graphviz version 2.38.0 (20140413.2041)
 -->
<!-- Title: models_diagram Pages: 1 -->
<svg width="503pt" height="158pt"
 viewBox="0.00 0.00 503.34 158.00" xmlns="http://www.w3.org/2000/svg" xmlns:xlink="http://www.w3.org/1999/xlink">
<g id="graph0" class="graph" transform="scale(1 1) rotate(0) translate(4 154)">
<title>models_diagram</title>
<polygon fill="none" stroke="none" points="-4,4 -4,-154 499.343,-154 499.343,4 -4,4"/>
<!-- _diagram_info -->
<g id="node1" class="node"><title>_diagram_info</title>
<text text-anchor="start" x="8" y="-135.6" font-family="Times,serif" font-size="13.00">Models diagram</text>
<text text-anchor="start" x="8" y="-121.6" font-family="Times,serif" font-size="13.00">Date: Oct 11 2017 &#45; 21:08</text>
<text text-anchor="start" x="8" y="-107.6" font-family="Times,serif" font-size="13.00">Migration version: 20171011221739</text>
<text text-anchor="start" x="8" y="-93.6" font-family="Times,serif" font-size="13.00">Generated by RailRoady 1.5.3</text>
<text text-anchor="start" x="8" y="-79.6" font-family="Times,serif" font-size="13.00">http://railroady.prestonlee.com</text>
</g>
<!-- Company -->
<g id="node2" class="node"><title>Company</title>
<ellipse fill="none" stroke="black" cx="277" cy="-111" rx="45.4919" ry="18"/>
<text text-anchor="middle" x="277" y="-107.3" font-family="Times,serif" font-size="14.00">Company</text>
</g>
<!-- Comment -->
<g id="node3" class="node"><title>Comment</title>
<ellipse fill="none" stroke="black" cx="277" cy="-18" rx="46.2923" ry="18"/>
<text text-anchor="middle" x="277" y="-14.3" font-family="Times,serif" font-size="14.00">Comment</text>
</g>
<!-- Company&#45;&gt;Comment -->
<g id="edge1" class="edge"><title>Company&#45;&gt;Comment</title>
<path fill="none" stroke="#d1d78d" d="M277,-84.7285C277,-72.7246 277,-58.3622 277,-46.1291"/>
<ellipse fill="none" stroke="#d1d78d" cx="277" cy="-88.8836" rx="4" ry="4"/>
<polygon fill="#d1d78d" stroke="#d1d78d" points="277,-46.0397 281.5,-36.0396 277,-41.0397 277,-36.0397 277,-36.0397 277,-36.0397 277,-41.0397 272.5,-36.0397 277,-46.0397 277,-46.0397"/>
</g>
<!-- ApplicationRecord -->
<g id="node4" class="node"><title>ApplicationRecord</title>
<ellipse fill="none" stroke="black" cx="418" cy="-111" rx="77.1866" ry="18"/>
<text text-anchor="middle" x="418" y="-107.3" font-family="Times,serif" font-size="14.00">ApplicationRecord</text>
</g>
</g>
</svg>
